<svg width="357" height="385" viewBox="0 0 357 385" fill="none" xmlns="http://www.w3.org/2000/svg">
<g clip-path="url(#clip0_105_1042)">
<rect x="130" width="10" height="10" fill="black"/>
<rect x="140" width="10" height="10" fill="black"/>
<rect x="150" width="10" height="10" fill="black"/>
<rect x="160" width="10" height="10" fill="black"/>
<rect x="170" width="10" height="10" fill="black"/>
<rect x="180" width="10" height="10" fill="black"/>
<rect x="190" width="10" height="10" fill="black"/>
<rect x="200" width="10" height="10" fill="black"/>
<rect x="210" width="10" height="10" fill="black"/>
<rect x="100" y="10" width="10" height="10" fill="black"/>
<rect x="110" y="10" width="10" height="10" fill="black"/>
<rect x="120" y="10" width="10" height="10" fill="black"/>
<rect x="130" y="10" width="10" height="10" fill="black"/>
<rect x="140" y="10" width="10" height="10" fill="black"/>
<rect x="150" y="10" width="10" height="10" fill="black"/>
<rect x="160" y="10" width="10" height="10" fill="black"/>
<rect x="170" y="10" width="10" height="10" fill="black"/>
<rect x="180" y="10" width="10" height="10" fill="black"/>
<rect x="190" y="10" width="10" height="10" fill="black"/>
<rect x="200" y="10" width="10" height="10" fill="black"/>
<rect x="210" y="10" width="10" height="10" fill="black"/>
<rect x="220" y="10" width="10" height="10" fill="black"/>
<rect x="230" y="10" width="10" height="10" fill="black"/>
<rect x="240" y="10" width="10" height="10" fill="black"/>
<rect x="80" y="20" width="10" height="10" fill="black"/>
<rect x="90" y="20" width="10" height="10" fill="black"/>
<rect x="100" y="20" width="10" height="10" fill="black"/>
<rect x="110" y="20" width="10" height="10" fill="black"/>
<rect x="120" y="20" width="10" height="10" fill="black"/>
<rect x="130" y="20" width="10" height="10" fill="black"/>
<rect x="140" y="20" width="10" height="10" fill="black"/>
<rect x="150" y="20" width="10" height="10" fill="black"/>
<rect x="160" y="20" width="10" height="10" fill="black"/>
<rect x="170" y="20" width="10" height="10" fill="black"/>
<rect x="180" y="20" width="10" height="10" fill="black"/>
<rect x="190" y="20" width="10" height="10" fill="black"/>
<rect x="200" y="20" width="10" height="10" fill="black"/>
<rect x="210" y="20" width="10" height="10" fill="black"/>
<rect x="220" y="20" width="10" height="10" fill="black"/>
<rect x="230" y="20" width="10" height="10" fill="black"/>
<rect x="240" y="20" width="10" height="10" fill="black"/>
<rect x="250" y="20" width="10" height="10" fill="black"/>
<rect x="260" y="20" width="10" height="10" fill="black"/>
<rect x="70" y="30" width="10" height="10" fill="black"/>
<rect x="80" y="30" width="10" height="10" fill="black"/>
<rect x="90" y="30" width="10" height="10" fill="black"/>
<rect x="100" y="30" width="10" height="10" fill="black"/>
<rect x="110" y="30" width="10" height="10" fill="black"/>
<rect x="120" y="30" width="10" height="10" fill="black"/>
<rect x="230" y="30" width="10" height="10" fill="black"/>
<rect x="240" y="30" width="10" height="10" fill="black"/>
<rect x="250" y="30" width="10" height="10" fill="black"/>
<rect x="260" y="30" width="10" height="10" fill="black"/>
<rect x="270" y="30" width="10" height="10" fill="black"/>
<rect x="280" y="30" width="10" height="10" fill="black"/>
<rect x="60" y="40" width="10" height="10" fill="black"/>
<rect x="70" y="40" width="10" height="10" fill="black"/>
<rect x="80" y="40" width="10" height="10" fill="black"/>
<rect x="90" y="40" width="10" height="10" fill="black"/>
<rect x="250" y="40" width="10" height="10" fill="black"/>
<rect x="260" y="40" width="10" height="10" fill="black"/>
<rect x="270" y="40" width="10" height="10" fill="black"/>
<rect x="280" y="40" width="10" height="10" fill="black"/>
<rect x="290" y="40" width="10" height="10" fill="black"/>
<rect x="50" y="50" width="10" height="10" fill="black"/>
<rect x="60" y="50" width="10" height="10" fill="black"/>
<rect x="70" y="50" width="10" height="10" fill="black"/>
<rect x="270" y="50" width="10" height="10" fill="black"/>
<rect x="280" y="50" width="10" height="10" fill="black"/>
<rect x="290" y="50" width="10" height="10" fill="black"/>
<rect x="300" y="50" width="10" height="10" fill="black"/>
<rect x="40" y="60" width="10" height="10" fill="black"/>
<rect x="50" y="60" width="10" height="10" fill="black"/>
<rect x="60" y="60" width="10" height="10" fill="black"/>
<rect x="290" y="60" width="10" height="10" fill="black"/>
<rect x="300" y="60" width="10" height="10" fill="black"/>
<rect x="310" y="60" width="10" height="10" fill="black"/>
<rect x="30" y="70" width="10" height="10" fill="black"/>
<rect x="40" y="70" width="10" height="10" fill="black"/>
<rect x="50" y="70" width="10" height="10" fill="black"/>
<rect x="300" y="70" width="10" height="10" fill="black"/>
<rect x="310" y="70" width="10" height="10" fill="black"/>
<rect x="30" y="80" width="10" height="10" fill="black"/>
<rect x="40" y="80" width="10" height="10" fill="black"/>
<rect x="310" y="80" width="10" height="10" fill="black"/>
<rect x="320" y="80" width="10" height="10" fill="black"/>
<rect x="20" y="90" width="10" height="10" fill="black"/>
<rect x="30" y="90" width="10" height="10" fill="black"/>
<rect x="320" y="90" width="10" height="10" fill="black"/>
<rect x="330" y="90" width="10" height="10" fill="black"/>
<rect x="10" y="100" width="10" height="10" fill="black"/>
<rect x="20" y="100" width="10" height="10" fill="black"/>
<rect x="320" y="100" width="10" height="10" fill="black"/>
<rect x="330" y="100" width="10" height="10" fill="black"/>
<rect x="10" y="110" width="10" height="10" fill="black"/>
<rect x="330" y="110" width="10" height="10" fill="black"/>
<rect x="340" y="110" width="10" height="10" fill="black"/>
<rect x="10" y="120" width="10" height="10" fill="black"/>
<rect x="340" y="120" width="10" height="10" fill="black"/>
<rect y="130" width="10" height="10" fill="black"/>
<rect x="340" y="130" width="10" height="10" fill="black"/>
<rect y="140" width="10" height="10" fill="black"/>
<rect y="150" width="10" height="10" fill="black"/>
<rect x="350" y="150" width="10" height="10" fill="black"/>
<rect x="350" y="160" width="10" height="10" fill="black"/>
<rect x="350" y="210" width="10" height="10" fill="black"/>
<rect y="220" width="10" height="10" fill="black"/>
<rect x="350" y="220" width="10" height="10" fill="black"/>
<rect y="230" width="10" height="10" fill="black"/>
<rect y="240" width="10" height="10" fill="black"/>
<rect x="340" y="240" width="10" height="10" fill="black"/>
<rect x="10" y="250" width="10" height="10" fill="black"/>
<rect x="340" y="250" width="10" height="10" fill="black"/>
<rect x="10" y="260" width="10" height="10" fill="black"/>
<rect x="330" y="260" width="10" height="10" fill="black"/>
<rect x="340" y="260" width="10" height="10" fill="black"/>
<rect x="10" y="270" width="10" height="10" fill="black"/>
<rect x="20" y="270" width="10" height="10" fill="black"/>
<rect x="330" y="270" width="10" height="10" fill="black"/>
<rect x="20" y="280" width="10" height="10" fill="black"/>
<rect x="30" y="280" width="10" height="10" fill="black"/>
<rect x="320" y="280" width="10" height="10" fill="black"/>
<rect x="330" y="280" width="10" height="10" fill="black"/>
<rect x="20" y="290" width="10" height="10" fill="black"/>
<rect x="30" y="290" width="10" height="10" fill="black"/>
<rect x="310" y="290" width="10" height="10" fill="black"/>
<rect x="320" y="290" width="10" height="10" fill="black"/>
<rect x="30" y="300" width="10" height="10" fill="black"/>
<rect x="40" y="300" width="10" height="10" fill="black"/>
<rect x="300" y="300" width="10" height="10" fill="black"/>
<rect x="310" y="300" width="10" height="10" fill="black"/>
<rect x="320" y="300" width="10" height="10" fill="black"/>
<rect x="40" y="310" width="10" height="10" fill="black"/>
<rect x="50" y="310" width="10" height="10" fill="black"/>
<rect x="290" y="310" width="10" height="10" fill="black"/>
<rect x="300" y="310" width="10" height="10" fill="black"/>
<rect x="310" y="310" width="10" height="10" fill="black"/>
<rect x="40" y="320" width="10" height="10" fill="black"/>
<rect x="50" y="320" width="10" height="10" fill="black"/>
<rect x="60" y="320" width="10" height="10" fill="black"/>
<rect x="70" y="320" width="10" height="10" fill="black"/>
<rect x="280" y="320" width="10" height="10" fill="black"/>
<rect x="290" y="320" width="10" height="10" fill="black"/>
<rect x="300" y="320" width="10" height="10" fill="black"/>
<rect x="50" y="330" width="10" height="10" fill="black"/>
<rect x="60" y="330" width="10" height="10" fill="black"/>
<rect x="70" y="330" width="10" height="10" fill="black"/>
<rect x="80" y="330" width="10" height="10" fill="black"/>
<rect x="260" y="330" width="10" height="10" fill="black"/>
<rect x="270" y="330" width="10" height="10" fill="black"/>
<rect x="280" y="330" width="10" height="10" fill="black"/>
<rect x="290" y="330" width="10" height="10" fill="black"/>
<rect x="70" y="340" width="10" height="10" fill="black"/>
<rect x="80" y="340" width="10" height="10" fill="black"/>
<rect x="90" y="340" width="10" height="10" fill="black"/>
<rect x="100" y="340" width="10" height="10" fill="black"/>
<rect x="110" y="340" width="10" height="10" fill="black"/>
<rect x="240" y="340" width="10" height="10" fill="black"/>
<rect x="250" y="340" width="10" height="10" fill="black"/>
<rect x="260" y="340" width="10" height="10" fill="black"/>
<rect x="270" y="340" width="10" height="10" fill="black"/>
<rect x="280" y="340" width="10" height="10" fill="black"/>
<rect x="80" y="350" width="10" height="10" fill="black"/>
<rect x="90" y="350" width="10" height="10" fill="black"/>
<rect x="100" y="350" width="10" height="10" fill="black"/>
<rect x="110" y="350" width="10" height="10" fill="black"/>
<rect x="120" y="350" width="10" height="10" fill="black"/>
<rect x="130" y="350" width="10" height="10" fill="black"/>
<rect x="140" y="350" width="10" height="10" fill="black"/>
<rect x="150" y="350" width="10" height="10" fill="black"/>
<rect x="200" y="350" width="10" height="10" fill="black"/>
<rect x="210" y="350" width="10" height="10" fill="black"/>
<rect x="220" y="350" width="10" height="10" fill="black"/>
<rect x="230" y="350" width="10" height="10" fill="black"/>
<rect x="240" y="350" width="10" height="10" fill="black"/>
<rect x="250" y="350" width="10" height="10" fill="black"/>
<rect x="260" y="350" width="10" height="10" fill="black"/>
<rect x="270" y="350" width="10" height="10" fill="black"/>
<rect x="100" y="360" width="10" height="10" fill="black"/>
<rect x="110" y="360" width="10" height="10" fill="black"/>
<rect x="120" y="360" width="10" height="10" fill="black"/>
<rect x="130" y="360" width="10" height="10" fill="black"/>
<rect x="140" y="360" width="10" height="10" fill="black"/>
<rect x="150" y="360" width="10" height="10" fill="black"/>
<rect x="160" y="360" width="10" height="10" fill="black"/>
<rect x="170" y="360" width="10" height="10" fill="black"/>
<rect x="180" y="360" width="10" height="10" fill="black"/>
<rect x="190" y="360" width="10" height="10" fill="black"/>
<rect x="200" y="360" width="10" height="10" fill="black"/>
<rect x="210" y="360" width="10" height="10" fill="black"/>
<rect x="220" y="360" width="10" height="10" fill="black"/>
<rect x="230" y="360" width="10" height="10" fill="black"/>
<rect x="240" y="360" width="10" height="10" fill="black"/>
<rect x="250" y="360" width="10" height="10" fill="black"/>
<rect x="120" y="370" width="10" height="10" fill="black"/>
<rect x="130" y="370" width="10" height="10" fill="black"/>
<rect x="140" y="370" width="10" height="10" fill="black"/>
<rect x="150" y="370" width="10" height="10" fill="black"/>
<rect x="160" y="370" width="10" height="10" fill="black"/>
<rect x="170" y="370" width="10" height="10" fill="black"/>
<rect x="180" y="370" width="10" height="10" fill="black"/>
<rect x="190" y="370" width="10" height="10" fill="black"/>
<rect x="200" y="370" width="10" height="10" fill="black"/>
<rect x="210" y="370" width="10" height="10" fill="black"/>
<rect x="220" y="370" width="10" height="10" fill="black"/>
<rect x="230" y="370" width="10" height="10" fill="black"/>
<rect x="160" y="380" width="10" height="10" fill="black"/>
<rect x="170" y="380" width="10" height="10" fill="black"/>
<rect x="180" y="380" width="10" height="10" fill="black"/>
<rect x="190" y="380" width="10" height="10" fill="black"/>
</g>
<defs>
<clipPath id="clip0_105_1042">
<rect width="357" height="385" fill="white"/>
</clipPath>
</defs>
</svg>
